<?xml version="1.0" ?><svg xmlns="http://www.w3.org/2000/svg" xmlns:xlink="http://www.w3.org/1999/xlink" version="1.1" viewBox="0 0 64 64" style="enable-background:new 0 0 64 64;" xml:space="preserve"><g id="flag"/><g id="dwarf"/><g id="weapon"><path d="M61,56.4c0-1.2-0.5-2.4-1.3-3.2l-4.4-4.4c2.5-4,3.8-8.5,3.8-13.2V4c0-0.6-0.4-1-1-1h-3c-0.2,0-0.4,0.1-0.6,0.2   C48.8,7,43.2,7,37.6,3.2C37.4,3.1,37.2,3,37,3H27c-0.2,0-0.4,0.1-0.6,0.2C20.8,7,15.2,7,9.6,3.2C9.4,3.1,9.2,3,9,3H6   C5.4,3,5,3.4,5,4v31.6c0,4.7,1.3,9.2,3.8,13.2l-4.4,4.4c-1.8,1.8-1.8,4.7,0,6.5l0,0C5.3,60.6,6.4,61,7.6,61s2.3-0.4,3.2-1.3   l4.1-4.1c3.6,2.7,7.8,4.4,12.2,4.9l4.7,0.5c0,0,0.1,0,0.1,0s0.1,0,0.1,0l4.7-0.5c4.5-0.5,8.7-2.2,12.2-4.9l4.1,4.1   c0.9,0.9,2,1.3,3.2,1.3c1.2,0,2.4-0.5,3.2-1.3L59,59l0.7,0.7C60.5,58.8,61,57.6,61,56.4z M7,35.6V5h1.7c6.2,4,12.4,4,18.6,0h9.4   c6.2,4,12.4,4,18.6,0H57v30.6c0,4.2-1.1,8.2-3.2,11.7l-3.5-3.5l3.7-3.7c1.8-1.8,1.8-4.7,0-6.5c-0.9-0.9-2-1.3-3.2-1.3   s-2.4,0.5-3.2,1.3c-1.5,1.5-1.7,3.6-0.8,5.4l-7-7l12.7-12.7c0.1-0.1,0.2-0.3,0.3-0.5l1.3-7.6c0.1-0.3-0.1-0.6-0.3-0.9   c-0.2-0.2-0.6-0.3-0.9-0.3l-7.6,1.3c-0.2,0-0.4,0.1-0.5,0.3L32,24.3L19.3,11.6c-0.1-0.1-0.3-0.2-0.5-0.3L11.2,10   c-0.3-0.1-0.6,0.1-0.9,0.3c-0.2,0.2-0.3,0.6-0.3,0.9l1.3,7.6c0,0.2,0.1,0.4,0.3,0.5L24.3,32l-7,7c0.9-1.7,0.7-3.9-0.8-5.4   c-1.8-1.8-4.7-1.8-6.5,0c-1.8,1.8-1.8,4.7,0,6.5l3.7,3.7l-3.5,3.5C8.1,43.8,7,39.7,7,35.6z M48.2,43.1l-2.5,2.5l-6.9,6.9   c-1,1-2.7,1-3.6,0c-0.5-0.5-0.8-1.1-0.8-1.8c0-0.7,0.3-1.3,0.8-1.8s1.1-0.8,1.8-0.8s1.3,0.3,1.8,0.8c0.2,0.2,0.4,0.3,0.7,0.3   s0.5-0.1,0.7-0.3l4.4-4.4c0,0,0,0,0,0s0,0,0,0l4.4-4.4c0.4-0.4,0.4-1,0-1.4c-1-1-1-2.6,0-3.6c1-1,2.7-1,3.6,0c1,1,1,2.6,0,3.6   L48.2,43.1C48.2,43.1,48.2,43.1,48.2,43.1z M20.9,48.2l-5-5l-4.4-4.4c-1-1-1-2.6,0-3.6c0.5-0.5,1.1-0.8,1.8-0.8s1.3,0.3,1.8,0.8   c1,1,1,2.6,0,3.6c-0.4,0.4-0.4,1,0,1.4l1.2,1.2c0,0,0,0,0,0l4.4,4.4l3.2,3.2c0.4,0.4,1,0.4,1.4,0c1-1,2.7-1,3.6,0   c0.5,0.5,0.8,1.1,0.8,1.8c0,0.7-0.3,1.3-0.8,1.8c-1,1-2.7,1-3.6,0L20.9,48.2z M27.4,35.2l-7.2,7.2l-1.7-1.7l7.2-7.2L27.4,35.2z    M23.4,45.5l-1.7-1.7l7.2-7.2l1.7,1.7L23.4,45.5z M32.7,37.6C32.7,37.6,32.7,37.6,32.7,37.6C32.7,37.6,32.7,37.6,32.7,37.6   l-3.2-3.2c0,0,0,0,0,0c0,0,0,0,0,0l-3.1-3.1c0,0,0,0,0,0s0,0,0,0L13.2,18.1l-0.7-4.2l29.9,29.9l-1.7,1.7L32.7,37.6z M36.6,28.9   l14.9-15l-0.7,4.2L38.3,30.6L36.6,28.9z M35.2,27.4l-1.7-1.7l12.5-12.5l4.2-0.7L35.2,27.4z M31.3,26.4   C31.3,26.4,31.3,26.4,31.3,26.4C31.3,26.4,31.3,26.4,31.3,26.4l3.2,3.2c0,0,0,0,0,0c0,0,0,0,0,0l3.1,3.1c0,0,0,0,0,0s0,0,0,0   l7.9,7.9l-1.7,1.7L13.9,12.5l4.2,0.7L31.3,26.4z M9.4,58.2c-1,1-2.6,1-3.6,0l0,0c-1-1-1-2.6,0-3.6l9.4-9.4l3.6,3.6L9.4,58.2z    M36.6,58.5L32,59l-4.6-0.5c-4-0.5-7.8-2-11-4.4l3.8-3.8l3.7,3.7c0.9,0.9,2,1.3,3.2,1.3c1.2,0,2.4-0.5,3.2-1.3   c1.8-1.8,1.8-4.7,0-6.5c-0.9-0.9-2-1.3-3.2-1.3c-0.8,0-1.5,0.2-2.1,0.5l7-7l7,7c-0.6-0.3-1.4-0.5-2.1-0.5c-1.2,0-2.4,0.5-3.2,1.3   c-0.9,0.9-1.3,2-1.3,3.2c0,1.2,0.5,2.4,1.3,3.2c0.9,0.9,2,1.3,3.2,1.3s2.4-0.5,3.2-1.3l3.7-3.7l3.8,3.8   C44.4,56.5,40.6,58,36.6,58.5z M58.2,58.2L58.2,58.2c-1,1-2.7,1-3.6,0l-9.4-9.4L47,47l1.8-1.8l9.4,9.4c0.5,0.5,0.8,1.1,0.8,1.8   C59,57.1,58.7,57.8,58.2,58.2z"/></g><g id="magic_potion"/><g id="magic_fire"/><g id="elf"/><g id="crown"/><g id="tower"/><g id="magic_broom"/><g id="knight"/><g id="magic_book"/><g id="unicorn"/><g id="wizard"/><g id="witch"/><g id="magic_wand"/><g id="queen"/><g id="forest"/><g id="home_tree"/><g id="king"/><g id="castle"/></svg>